<svg xmlns="http://www.w3.org/2000/svg" xmlns:xlink="http://www.w3.org/1999/xlink" width="17" height="19" viewBox="0 0 17 19">
  <defs>
    <clipPath id="clip-logo-branco">
      <rect width="17" height="19"/>
    </clipPath>
  </defs>
  <g id="logo-branco" clip-path="url(#clip-logo-branco)">
    <g id="Grupo_4340" data-name="Grupo 4340" transform="translate(-10358.978 -9625.164)">
      <path id="Caminho_2783" data-name="Caminho 2783" d="M39.6,14.347l.446.149a3.73,3.73,0,0,1,1.042.6,2.9,2.9,0,0,1,1.339,3.125,4.474,4.474,0,0,1-2.232,3.571,7.449,7.449,0,0,1-3.571,1.339,8.484,8.484,0,0,1-1.934.149H27.1c.149-.744.149-1.339.3-1.934l1.785-9.969a32.905,32.905,0,0,0,.744-3.72.4.4,0,0,1,.446-.446,38.057,38.057,0,0,1,4.017-.744,11.261,11.261,0,0,1,2.232-.149,7.325,7.325,0,0,1,4.315.893,4.217,4.217,0,0,1,1.934,4.315A3.076,3.076,0,0,1,41.384,13.6c-.446.3-.893.446-1.339.744Zm-8.183,6.1H35.73c.446,0,.744-.149,1.042-.149a2.723,2.723,0,0,0,1.785-2.827,1.582,1.582,0,0,0-1.339-1.488c-.3,0-.6-.149-1.042-.149H32.01ZM33.349,9.139c-.149,1.339-.446,2.678-.6,4.017l.149.149h3.422a2.4,2.4,0,0,0,1.934-.893,1.694,1.694,0,0,0,.6-2.083A1.582,1.582,0,0,0,37.366,8.99,9.169,9.169,0,0,0,33.349,9.139Z" transform="translate(10332.288 9620.89)" fill="#fff"/>
    </g>
  </g>
</svg>
