<svg xmlns="http://www.w3.org/2000/svg" viewBox="0 0 349.34 276.46"><defs><style>.cls-1,.cls-4{fill:#fff;}.cls-1,.cls-3,.cls-5{stroke:#a7c4e7;}.cls-1,.cls-3,.cls-4,.cls-5,.cls-6,.cls-9{stroke-linecap:round;stroke-linejoin:round;}.cls-1,.cls-3,.cls-4,.cls-9{stroke-width:3px;}.cls-2{fill:#ecf7fb;}.cls-3,.cls-5,.cls-6,.cls-8,.cls-9{fill:none;}.cls-4,.cls-9{stroke:#7faadc;}.cls-5,.cls-6{stroke-width:6px;}.cls-6{stroke:#e1e3e6;}.cls-7{fill:#f5f7fa;}</style></defs><title>semregistros</title><g id="Camada_2" data-name="Camada 2"><g id="Camada_1-2" data-name="Camada 1"><rect class="cls-1" x="13.72" y="69.74" width="122.88" height="169.48" rx="9.86" ry="9.86" transform="translate(-25.68 15.4) rotate(-10)"/><path class="cls-2" d="M62.86,71.51,111.33,63a9.85,9.85,0,0,1,11.42,8l26,147.47a9.87,9.87,0,0,1-8,11.43L62.86,243.6Z"/><rect class="cls-3" x="13.72" y="69.74" width="122.88" height="169.48" rx="9.86" ry="9.86" transform="translate(-25.68 15.4) rotate(-10)"/><rect class="cls-1" x="212.74" y="69.74" width="122.88" height="169.48" rx="9.86" ry="9.86" transform="translate(30.99 -45.26) rotate(10)"/><path class="cls-2" d="M287.27,71.51,238.8,63a9.85,9.85,0,0,0-11.42,8l-26,147.47a9.87,9.87,0,0,0,8,11.43l77.89,13.73Z"/><rect class="cls-3" x="212.74" y="69.74" width="122.88" height="169.48" rx="9.86" ry="9.86" transform="translate(30.99 -45.26) rotate(10)"/><path class="cls-2" d="M74.77,62.39c.31,0,.62,0,.93,0h46.5a15,15,0,0,0,15-15V.93c0-.31,0-.62,0-.93Z"/><path class="cls-4" d="M258.49,2.23H136.8V46.79a15,15,0,0,1-15,15h-46V257A18,18,0,0,0,93.71,275H255.54a18,18,0,0,0,18-17.95V17.23A15,15,0,0,0,258.49,2.23Z"/><line class="cls-4" x1="136.8" y1="2.23" x2="75.76" y2="61.79"/><line class="cls-5" x1="113.47" y1="98.8" x2="148.49" y2="98.8"/><line class="cls-6" x1="113.47" y1="118.94" x2="235.78" y2="118.94"/><line class="cls-6" x1="113.47" y1="139.07" x2="235.78" y2="139.07"/><line class="cls-6" x1="113.47" y1="159.21" x2="235.78" y2="159.21"/><polygon class="cls-7" points="114.28 62.07 76.09 62.07 76.09 100.27 114.28 62.07"/><path class="cls-8" d="M74.81,62.39c.31,0,.62,0,.93,0h46.5a15,15,0,0,0,15-15V.93c0-.31,0-.62,0-.93Z"/><path class="cls-9" d="M258.54,2.23H136.85V46.79a15,15,0,0,1-15,15h-46V257a18,18,0,0,0,18,17.95H255.59a18,18,0,0,0,18-17.95V17.23A15,15,0,0,0,258.54,2.23Z"/><line class="cls-9" x1="136.85" y1="2.23" x2="75.8" y2="61.79"/></g></g></svg>